M48
; DRILL file {KiCad 8.0.2} date 2024-05-19T12:28:59+0200
; FORMAT={-:-/ absolute / inch / decimal}
; #@! TF.CreationDate,2024-05-19T12:28:59+02:00
; #@! TF.GenerationSoftware,Kicad,Pcbnew,8.0.2
; #@! TF.FileFunction,Plated,1,4,PTH
FMAT,2
INCH
; #@! TA.AperFunction,Plated,PTH,ComponentDrill
T1C0.0098
; #@! TA.AperFunction,Plated,PTH,ViaDrill
T2C0.0157
; #@! TA.AperFunction,Plated,PTH,ComponentDrill
T3C0.0276
; #@! TA.AperFunction,Plated,PTH,ComponentDrill
T4C0.0315
; #@! TA.AperFunction,Plated,PTH,ComponentDrill
T5C0.0350
; #@! TA.AperFunction,Plated,PTH,ComponentDrill
T6C0.0354
; #@! TA.AperFunction,Plated,PTH,ComponentDrill
T7C0.0374
; #@! TA.AperFunction,Plated,PTH,ComponentDrill
T8C0.0394
; #@! TA.AperFunction,Plated,PTH,ComponentDrill
T9C0.0402
; #@! TA.AperFunction,Plated,PTH,ComponentDrill
T10C0.0512
; #@! TA.AperFunction,Plated,PTH,ComponentDrill
T11C0.0618
; #@! TA.AperFunction,Plated,PTH,ComponentDrill
T12C0.0925
%
G90
G05
T1
X2.9232Y-3.2744
X2.9232Y-3.3256
X2.9744Y-3.2744
X2.9744Y-3.3256
X3.0232Y-4.1744
X3.0232Y-4.2256
X3.0256Y-3.2744
X3.0256Y-3.3256
X3.0744Y-4.1744
X3.0744Y-4.2256
X3.0768Y-3.2744
X3.0768Y-3.3256
X3.1256Y-4.1744
X3.1256Y-4.2256
X3.1768Y-4.1744
X3.1768Y-4.2256
T2
X2.9321Y-4.1321
X2.9597Y-5.0497
X2.9652Y-4.0991
X2.9842Y-5.1234
X3.0234Y-5.0596
X3.0307Y-3.0969
X3.1Y-5.1
X3.126Y-3.8541
X3.1299Y-5.1509
X3.1902Y-5.1486
X3.2Y-4.7
X3.223Y-4.6732
X3.3Y-3.3
X3.373Y-3.8954
X3.3994Y-4.3991
X3.4Y-3.7
X3.4Y-4.3
X3.4Y-4.5
X3.4Y-4.5
X3.5575Y-4.8345
X3.561Y-4.8788
X3.6Y-5.0
X3.6Y-5.0491
X3.6031Y-3.5858
X3.6168Y-4.8345
X3.6257Y-4.8868
X3.6375Y-5.0988
X3.6429Y-3.1843
X3.6532Y-4.5752
X3.655Y-4.6221
X3.7Y-4.5734
X3.7Y-4.6199
X3.7Y-5.1
X3.8Y-5.2
X3.9161Y-3.5469
X3.9436Y-3.4616
X3.9477Y-4.4523
X3.969Y-3.4361
X3.9732Y-3.3189
X3.9956Y-5.3255
X3.9961Y-3.7583
X4.0Y-4.4
X4.0137Y-4.3716
X4.0506Y-4.3301
X4.0526Y-4.2923
X4.0552Y-4.3687
X4.0921Y-4.3178
X4.1429Y-5.0599
X4.157Y-4.5421
X4.1591Y-4.4819
X4.1623Y-4.5965
X4.1713Y-4.3047
X4.1724Y-3.0579
X4.1947Y-4.5
X4.2Y-4.4
X4.2286Y-5.0435
X4.2575Y-3.5205
X4.2618Y-3.0807
X4.2694Y-4.3036
X4.2717Y-3.6878
X4.2764Y-4.3929
X4.3075Y-3.9886
X4.31Y-3.09
X4.3579Y-4.5744
X4.3591Y-3.089
X4.3591Y-4.4421
X4.3626Y-4.3417
X4.3878Y-3.6394
X4.5098Y-4.4201
X4.5102Y-3.95
X4.515Y-3.4728
X4.5154Y-3.6626
X4.5179Y-5.2014
X4.53Y-3.29
X4.5409Y-4.8331
X4.5409Y-5.019
X4.6091Y-3.6945
X4.6094Y-3.8531
X4.6429Y-3.0933
X4.67Y-3.58
X4.6717Y-4.8209
X4.674Y-3.4957
X4.685Y-4.5772
X4.7165Y-5.5461
X4.7232Y-4.2811
X4.7335Y-4.2295
X4.7382Y-3.3756
X4.74Y-4.04
X4.7449Y-4.0906
X4.7503Y-4.3256
X4.7606Y-4.8984
X4.8Y-3.6
X4.82Y-3.55
X4.8268Y-3.4339
X4.8484Y-4.7449
X4.876Y-4.3669
X4.8799Y-3.7429
X4.9551Y-5.1484
X4.9902Y-3.5039
X5.0366Y-4.4516
X5.0807Y-4.8185
X5.1047Y-4.8815
X5.1457Y-5.0559
X5.2953Y-5.1323
X5.2972Y-4.9713
X5.3484Y-3.1646
X5.374Y-4.189
X5.4291Y-5.1165
X5.4709Y-5.4764
X5.537Y-5.4189
X5.6268Y-4.7441
X5.6295Y-5.1185
X5.6339Y-3.9803
X5.6839Y-3.9811
X5.6878Y-4.8413
X5.6945Y-4.1272
X5.7272Y-3.5795
X5.735Y-2.8921
X5.7661Y-5.0642
X5.7772Y-4.2457
X5.7976Y-3.9587
X5.8055Y-3.8634
X5.8402Y-4.6949
X5.8437Y-3.8343
X5.8461Y-3.9626
X5.8567Y-4.3236
X5.8669Y-4.3969
X5.8748Y-3.798
X5.8815Y-3.9988
X5.898Y-5.1957
X5.9138Y-3.7642
X5.9398Y-4.1433
X5.9579Y-3.7483
X5.9587Y-3.9106
X5.9668Y-4.2453
X6.026Y-2.9142
X6.0492Y-3.5437
X6.0567Y-4.2417
X6.0583Y-4.3209
X6.078Y-4.1126
X6.0812Y-3.7444
X6.0835Y-3.7051
X6.089Y-3.5421
X6.1252Y-4.4882
X6.1622Y-5.2386
X6.163Y-4.5488
X6.189Y-4.3283
X6.2008Y-5.0591
X6.2031Y-4.4433
X6.2083Y-3.7213
X6.2122Y-4.0193
X6.2173Y-4.2126
X6.2205Y-4.4882
X6.2205Y-4.9606
X6.2205Y-5.1575
X6.2213Y-4.1531
X6.2437Y-2.8894
X6.2551Y-4.0372
X6.2591Y-3.4473
X6.2681Y-4.1142
X6.2744Y-3.8157
X6.2854Y-4.5161
X6.2945Y-4.0366
X6.2992Y-4.9016
X6.3028Y-3.7272
X6.3028Y-3.7772
X6.3189Y-3.937
X6.3189Y-4.2126
X6.3236Y-4.6567
X6.3412Y-4.0306
X6.3436Y-4.1636
X6.3976Y-4.7244
X6.4413Y-4.0413
X6.46Y-3.46
X6.5141Y-3.506
X6.5157Y-4.252
X6.5543Y-4.4067
X6.5618Y-4.5339
X6.5748Y-4.0945
X6.6011Y-4.5128
X6.6339Y-2.8543
X6.6339Y-4.2126
X6.6474Y-4.516
X6.6586Y-4.572
X6.6606Y-3.8424
X6.6732Y-3.878
X6.676Y-4.3709
X6.6878Y-4.6012
X6.6929Y-3.7402
X6.7535Y-3.7075
X6.8689Y-4.5724
X6.8925Y-4.2224
X6.9291Y-4.9606
X6.9291Y-5.1378
X6.9386Y-3.6657
X6.9685Y-5.0591
T3
X3.6028Y-3.272
X3.6028Y-3.3507
X3.6028Y-3.4294
X3.6028Y-3.5082
X3.6028Y-3.6657
X3.6028Y-3.7444
X3.6028Y-3.8231
X3.6028Y-3.9019
X3.6028Y-3.9806
X3.6816Y-3.3113
X3.6816Y-3.3901
X3.6816Y-3.4688
X3.6816Y-3.6263
X3.6816Y-3.705
X3.6816Y-3.7838
X3.6816Y-3.8625
X3.6816Y-3.9413
X3.6816Y-4.02
X3.78Y-3.3113
X3.78Y-3.3901
X3.78Y-3.4688
X3.78Y-3.6263
X3.78Y-3.705
X3.78Y-3.7838
X3.78Y-3.8625
X3.78Y-3.9413
X3.78Y-4.02
X3.8587Y-3.272
X3.8587Y-3.3507
X3.8587Y-3.4294
X3.8587Y-3.5082
X3.8587Y-3.6657
X3.8587Y-3.7444
X3.8587Y-3.8231
X3.8587Y-3.9019
X3.8587Y-3.9806
T5
X6.3498Y-4.8272
X6.3998Y-4.9272
X6.4498Y-4.8272
X6.4998Y-4.9272
X6.5498Y-4.8272
X6.5998Y-4.9272
X6.6498Y-4.8272
X6.6998Y-4.9272
X6.7498Y-4.8272
X6.7998Y-4.9272
T6
X6.8629Y-3.1235
X6.8629Y-3.222
X6.8629Y-3.3007
X6.8629Y-3.3991
T7
X4.0709Y-4.2193
X4.1693Y-4.2193
X4.2677Y-4.2193
X4.28Y-5.38
X4.3661Y-4.2193
X4.3784Y-5.38
X4.4769Y-5.38
X4.5753Y-5.38
X6.4173Y-2.9035
X6.4173Y-3.002
X6.4173Y-3.1004
X6.4173Y-3.1988
X6.4173Y-3.2972
T8
X4.089Y-3.3618
X4.189Y-3.3618
X4.289Y-3.3618
X4.8Y-5.34
X4.8Y-5.44
X4.9Y-5.34
X4.9Y-5.44
X5.0Y-5.34
X5.0Y-5.44
X5.089Y-2.8634
X5.089Y-2.9634
X5.1Y-5.34
X5.1Y-5.44
X5.189Y-2.8634
X5.189Y-2.9634
X5.2Y-5.34
X5.2Y-5.44
X5.289Y-2.8634
X5.289Y-2.9634
X5.3Y-5.34
X5.3Y-5.44
X5.389Y-2.8634
X5.389Y-2.9634
X5.4Y-5.34
X5.4Y-5.44
X5.489Y-2.8634
X5.489Y-2.9634
X5.56Y-5.34
X5.589Y-2.8634
X5.589Y-2.9634
X5.66Y-5.34
X5.76Y-5.34
X5.92Y-5.34
X6.02Y-5.34
X6.12Y-5.34
X6.34Y-3.67
X6.44Y-3.67
X6.54Y-3.67
T9
X6.3071Y-5.2776
X6.3071Y-5.3575
X6.8425Y-5.2776
X6.8425Y-5.3575
T11
X6.2648Y-5.0571
X6.8848Y-5.0571
T12
X3.7308Y-3.2011
X3.7308Y-3.5613
T4
G00X3.3567Y-5.1
M15
G01X3.4433Y-5.1
M16
G05
G00X3.3567Y-5.3283
M15
G01X3.4433Y-5.3283
M16
G05
G00X3.589Y-5.2614
M15
G01X3.589Y-5.1748
M16
G05
T6
G00X3.9898Y-2.9224
M15
G01X3.9898Y-2.8909
M16
G05
G00X3.9898Y-3.1768
M15
G01X3.9898Y-3.1059
M16
G05
G00X4.5606Y-2.9224
M15
G01X4.5606Y-2.8909
M16
G05
G00X4.5606Y-3.1768
M15
G01X4.5606Y-3.1059
M16
G05
T10
G00X6.7432Y-3.0027
M15
G01X6.7826Y-3.0027
M16
G05
G00X6.7826Y-3.52
M15
G01X6.7432Y-3.52
M16
G05
M30
