%TF.GenerationSoftware,KiCad,Pcbnew,8.0.2*%
%TF.CreationDate,2024-05-19T12:28:56+02:00*%
%TF.ProjectId,CM4_NAS,434d345f-4e41-4532-9e6b-696361645f70,rev?*%
%TF.SameCoordinates,Original*%
%TF.FileFunction,Soldermask,Bot*%
%TF.FilePolarity,Negative*%
%FSLAX46Y46*%
G04 Gerber Fmt 4.6, Leading zero omitted, Abs format (unit mm)*
G04 Created by KiCad (PCBNEW 8.0.2) date 2024-05-19 12:28:56*
%MOMM*%
%LPD*%
G01*
G04 APERTURE LIST*
G04 Aperture macros list*
%AMRoundRect*
0 Rectangle with rounded corners*
0 $1 Rounding radius*
0 $2 $3 $4 $5 $6 $7 $8 $9 X,Y pos of 4 corners*
0 Add a 4 corners polygon primitive as box body*
4,1,4,$2,$3,$4,$5,$6,$7,$8,$9,$2,$3,0*
0 Add four circle primitives for the rounded corners*
1,1,$1+$1,$2,$3*
1,1,$1+$1,$4,$5*
1,1,$1+$1,$6,$7*
1,1,$1+$1,$8,$9*
0 Add four rect primitives between the rounded corners*
20,1,$1+$1,$2,$3,$4,$5,0*
20,1,$1+$1,$4,$5,$6,$7,0*
20,1,$1+$1,$6,$7,$8,$9,0*
20,1,$1+$1,$8,$9,$2,$3,0*%
G04 Aperture macros list end*
%ADD10R,1.700000X1.700000*%
%ADD11O,1.700000X1.700000*%
%ADD12RoundRect,0.250000X-0.600000X-0.725000X0.600000X-0.725000X0.600000X0.725000X-0.600000X0.725000X0*%
%ADD13O,1.700000X1.950000*%
%ADD14C,6.100000*%
%ADD15C,3.250000*%
%ADD16RoundRect,0.102000X-0.699000X-0.699000X0.699000X-0.699000X0.699000X0.699000X-0.699000X0.699000X0*%
%ADD17C,1.602000*%
%ADD18C,1.734000*%
%ADD19C,2.559000*%
%ADD20RoundRect,0.100000X2.200000X-0.900000X2.200000X0.900000X-2.200000X0.900000X-2.200000X-0.900000X0*%
%ADD21C,2.350000*%
%ADD22R,1.300000X1.300000*%
%ADD23C,1.300000*%
%ADD24RoundRect,0.249900X-0.600100X-0.725100X0.600100X-0.725100X0.600100X0.725100X-0.600100X0.725100X0*%
%ADD25O,2.900000X1.900000*%
%ADD26O,5.000000X2.800000*%
%ADD27RoundRect,0.700000X1.800000X-0.700000X1.800000X0.700000X-1.800000X0.700000X-1.800000X-0.700000X0*%
%ADD28RoundRect,0.700000X0.700000X-1.800000X0.700000X1.800000X-0.700000X1.800000X-0.700000X-1.800000X0*%
%ADD29O,1.500000X3.300000*%
%ADD30O,1.500000X2.300000*%
%ADD31RoundRect,0.250000X-0.725000X0.600000X-0.725000X-0.600000X0.725000X-0.600000X0.725000X0.600000X0*%
%ADD32O,1.950000X1.700000*%
%ADD33R,2.000000X2.000000*%
G04 APERTURE END LIST*
D10*
%TO.C,J15*%
X108940000Y-85390000D03*
D11*
X106400000Y-85390000D03*
X103860000Y-85390000D03*
%TD*%
D12*
%TO.C,J7*%
X108712000Y-136652000D03*
D13*
X111212000Y-136652000D03*
X113712000Y-136652000D03*
X116212000Y-136652000D03*
%TD*%
D14*
%TO.C,Module1*%
X153755000Y-129619000D03*
X153755000Y-81619000D03*
X120755000Y-129619000D03*
X120755000Y-81619000D03*
%TD*%
D15*
%TO.C,J0*%
X161285000Y-131500000D03*
X172715000Y-131500000D03*
D16*
X172715000Y-125150000D03*
D17*
X171445000Y-122610000D03*
X170175000Y-125150000D03*
X168905000Y-122610000D03*
X167635000Y-125150000D03*
X166365000Y-122610000D03*
X165095000Y-125150000D03*
X163825000Y-122610000D03*
X162555000Y-125150000D03*
X161285000Y-122610000D03*
D18*
X160200000Y-134050000D03*
X160200000Y-136080000D03*
X173800000Y-134050000D03*
X173800000Y-136080000D03*
D19*
X159125000Y-128450000D03*
X174875000Y-128450000D03*
%TD*%
D10*
%TO.C,J12*%
X161036000Y-93218000D03*
D11*
X163576000Y-93218000D03*
X166116000Y-93218000D03*
%TD*%
D20*
%TO.C,U9*%
X76200000Y-83820000D03*
%TD*%
D21*
%TO.C,J3*%
X94762000Y-90458000D03*
X94762000Y-81308000D03*
D22*
X93512000Y-102108000D03*
D23*
X91512000Y-101108000D03*
X93512000Y-100108000D03*
X91512000Y-99108000D03*
X93512000Y-98108000D03*
X91512000Y-97108000D03*
X93512000Y-96108000D03*
X91512000Y-95108000D03*
X93512000Y-94108000D03*
X91512000Y-93108000D03*
X93512000Y-92108000D03*
X91512000Y-89108000D03*
X93512000Y-88108000D03*
X91512000Y-87108000D03*
X93512000Y-86108000D03*
X91512000Y-85108000D03*
X93512000Y-84108000D03*
X91512000Y-83108000D03*
X96012000Y-102108000D03*
X98012000Y-101108000D03*
X96012000Y-100108000D03*
X98012000Y-99108000D03*
X96012000Y-98108000D03*
X98012000Y-97108000D03*
X96012000Y-96108000D03*
X98012000Y-95108000D03*
X96012000Y-94108000D03*
X98012000Y-93108000D03*
X96012000Y-92108000D03*
X98012000Y-89108000D03*
X96012000Y-88108000D03*
X98012000Y-87108000D03*
X96012000Y-86108000D03*
X98012000Y-85108000D03*
X96012000Y-84108000D03*
X98012000Y-83108000D03*
%TD*%
D10*
%TO.C,J11*%
X150368000Y-135636000D03*
D11*
X152908000Y-135636000D03*
X155448000Y-135636000D03*
%TD*%
D10*
%TO.C,J9*%
X141224000Y-135636000D03*
D11*
X143764000Y-135636000D03*
X146304000Y-135636000D03*
%TD*%
D24*
%TO.C,J4*%
X103400000Y-107170000D03*
D13*
X105900000Y-107170000D03*
X108400000Y-107170000D03*
X110900000Y-107170000D03*
%TD*%
D10*
%TO.C,J10*%
X137160000Y-135636000D03*
D11*
X137160000Y-138176000D03*
X134620000Y-135636000D03*
X134620000Y-138176000D03*
X132080000Y-135636000D03*
X132080000Y-138176000D03*
X129540000Y-135636000D03*
X129540000Y-138176000D03*
X127000000Y-135636000D03*
X127000000Y-138176000D03*
X124460000Y-135636000D03*
X124460000Y-138176000D03*
X121920000Y-135636000D03*
X121920000Y-138176000D03*
%TD*%
D20*
%TO.C,U8*%
X78740000Y-106680000D03*
%TD*%
D23*
%TO.C,J1*%
X174318000Y-79338000D03*
X174318000Y-81838000D03*
X174318000Y-83838000D03*
D22*
X174318000Y-86338000D03*
D25*
X171778000Y-89408000D03*
X171778000Y-76268000D03*
%TD*%
D10*
%TO.C,J13*%
X129260000Y-75270000D03*
D11*
X129260000Y-72730000D03*
X131800000Y-75270000D03*
X131800000Y-72730000D03*
X134340000Y-75270000D03*
X134340000Y-72730000D03*
X136880000Y-75270000D03*
X136880000Y-72730000D03*
X139420000Y-75270000D03*
X139420000Y-72730000D03*
X141960000Y-75270000D03*
X141960000Y-72730000D03*
%TD*%
D26*
%TO.C,J14*%
X86360000Y-129540000D03*
D27*
X86360000Y-135340000D03*
D28*
X91160000Y-132540000D03*
%TD*%
D29*
%TO.C,J2*%
X101340000Y-79790000D03*
X115840000Y-79790000D03*
D30*
X115840000Y-73830000D03*
X101340000Y-73830000D03*
%TD*%
D31*
%TO.C,J8*%
X163000000Y-73750000D03*
D32*
X163000000Y-76250000D03*
X163000000Y-78750000D03*
X163000000Y-81250000D03*
X163000000Y-83750000D03*
%TD*%
D33*
%TO.C,TP2*%
X100695942Y-112755473D03*
%TD*%
%TO.C,TP1*%
X81280000Y-119380000D03*
%TD*%
%TO.C,TP4*%
X86360000Y-93980000D03*
%TD*%
%TO.C,TP3*%
X96520000Y-132080000D03*
%TD*%
M02*
