%TF.GenerationSoftware,KiCad,Pcbnew,8.0.2*%
%TF.CreationDate,2024-05-19T12:28:56+02:00*%
%TF.ProjectId,CM4_NAS,434d345f-4e41-4532-9e6b-696361645f70,rev?*%
%TF.SameCoordinates,Original*%
%TF.FileFunction,Paste,Top*%
%TF.FilePolarity,Positive*%
%FSLAX46Y46*%
G04 Gerber Fmt 4.6, Leading zero omitted, Abs format (unit mm)*
G04 Created by KiCad (PCBNEW 8.0.2) date 2024-05-19 12:28:56*
%MOMM*%
%LPD*%
G01*
G04 APERTURE LIST*
G04 Aperture macros list*
%AMRoundRect*
0 Rectangle with rounded corners*
0 $1 Rounding radius*
0 $2 $3 $4 $5 $6 $7 $8 $9 X,Y pos of 4 corners*
0 Add a 4 corners polygon primitive as box body*
4,1,4,$2,$3,$4,$5,$6,$7,$8,$9,$2,$3,0*
0 Add four circle primitives for the rounded corners*
1,1,$1+$1,$2,$3*
1,1,$1+$1,$4,$5*
1,1,$1+$1,$6,$7*
1,1,$1+$1,$8,$9*
0 Add four rect primitives between the rounded corners*
20,1,$1+$1,$2,$3,$4,$5,0*
20,1,$1+$1,$4,$5,$6,$7,0*
20,1,$1+$1,$6,$7,$8,$9,0*
20,1,$1+$1,$8,$9,$2,$3,0*%
G04 Aperture macros list end*
%ADD10RoundRect,0.135000X0.135000X0.185000X-0.135000X0.185000X-0.135000X-0.185000X0.135000X-0.185000X0*%
%ADD11RoundRect,0.135000X0.185000X-0.135000X0.185000X0.135000X-0.185000X0.135000X-0.185000X-0.135000X0*%
%ADD12RoundRect,0.135000X-0.185000X0.135000X-0.185000X-0.135000X0.185000X-0.135000X0.185000X0.135000X0*%
%ADD13RoundRect,0.250000X-0.250000X-0.475000X0.250000X-0.475000X0.250000X0.475000X-0.250000X0.475000X0*%
%ADD14RoundRect,0.140000X-0.170000X0.140000X-0.170000X-0.140000X0.170000X-0.140000X0.170000X0.140000X0*%
%ADD15R,0.550000X0.300000*%
%ADD16R,0.550000X0.400000*%
%ADD17RoundRect,0.250000X0.250000X0.475000X-0.250000X0.475000X-0.250000X-0.475000X0.250000X-0.475000X0*%
%ADD18RoundRect,0.135000X-0.135000X-0.185000X0.135000X-0.185000X0.135000X0.185000X-0.135000X0.185000X0*%
%ADD19RoundRect,0.250000X0.325000X0.450000X-0.325000X0.450000X-0.325000X-0.450000X0.325000X-0.450000X0*%
%ADD20RoundRect,0.140000X-0.140000X-0.170000X0.140000X-0.170000X0.140000X0.170000X-0.140000X0.170000X0*%
%ADD21R,0.700000X0.200000*%
%ADD22RoundRect,0.140000X0.140000X0.170000X-0.140000X0.170000X-0.140000X-0.170000X0.140000X-0.170000X0*%
%ADD23RoundRect,0.250000X0.475000X-0.250000X0.475000X0.250000X-0.475000X0.250000X-0.475000X-0.250000X0*%
%ADD24RoundRect,0.250000X0.460000X-0.315000X0.460000X0.315000X-0.460000X0.315000X-0.460000X-0.315000X0*%
%ADD25RoundRect,0.150000X0.150000X-0.737500X0.150000X0.737500X-0.150000X0.737500X-0.150000X-0.737500X0*%
%ADD26R,0.650000X0.400000*%
%ADD27R,0.600000X1.000000*%
%ADD28R,0.700000X0.420000*%
%ADD29R,2.350000X5.100000*%
%ADD30RoundRect,0.250000X-0.475000X0.250000X-0.475000X-0.250000X0.475000X-0.250000X0.475000X0.250000X0*%
%ADD31RoundRect,0.250000X-1.025000X0.787500X-1.025000X-0.787500X1.025000X-0.787500X1.025000X0.787500X0*%
%ADD32RoundRect,0.100000X0.100000X-0.712500X0.100000X0.712500X-0.100000X0.712500X-0.100000X-0.712500X0*%
%ADD33R,0.400000X0.650000*%
%ADD34RoundRect,0.250000X0.337500X0.475000X-0.337500X0.475000X-0.337500X-0.475000X0.337500X-0.475000X0*%
%ADD35R,0.800000X0.900000*%
%ADD36RoundRect,0.250000X-0.475000X0.337500X-0.475000X-0.337500X0.475000X-0.337500X0.475000X0.337500X0*%
%ADD37RoundRect,0.140000X0.170000X-0.140000X0.170000X0.140000X-0.170000X0.140000X-0.170000X-0.140000X0*%
%ADD38R,0.300000X2.600000*%
%ADD39RoundRect,0.250000X0.787500X1.025000X-0.787500X1.025000X-0.787500X-1.025000X0.787500X-1.025000X0*%
G04 APERTURE END LIST*
D10*
%TO.C,R1*%
X160490000Y-99000000D03*
X161510000Y-99000000D03*
%TD*%
D11*
%TO.C,R2*%
X164420000Y-107790000D03*
X164420000Y-106770000D03*
%TD*%
%TO.C,R3*%
X168500000Y-104020000D03*
X168500000Y-103000000D03*
%TD*%
D12*
%TO.C,R4*%
X170000000Y-96490000D03*
X170000000Y-97510000D03*
%TD*%
%TO.C,R5*%
X102333143Y-128752406D03*
X102333143Y-129772406D03*
%TD*%
D10*
%TO.C,R6*%
X172510000Y-72750000D03*
X171490000Y-72750000D03*
%TD*%
D13*
%TO.C,C11*%
X77836186Y-90654612D03*
X79736186Y-90654612D03*
%TD*%
D14*
%TO.C,C14*%
X77788933Y-124693300D03*
X77788933Y-125653300D03*
%TD*%
D15*
%TO.C,U2*%
X167060000Y-110980000D03*
X167060000Y-110480000D03*
D16*
X167060000Y-109980000D03*
D15*
X167060000Y-109480000D03*
X167060000Y-108980000D03*
X166290000Y-108980000D03*
X166290000Y-109480000D03*
D16*
X166290000Y-109980000D03*
D15*
X166290000Y-110480000D03*
X166290000Y-110980000D03*
%TD*%
D17*
%TO.C,C6*%
X74678118Y-90555373D03*
X72778118Y-90555373D03*
%TD*%
D12*
%TO.C,R8*%
X74310618Y-105579623D03*
X74310618Y-106599623D03*
%TD*%
D18*
%TO.C,R11*%
X84137784Y-86893910D03*
X85157784Y-86893910D03*
%TD*%
D19*
%TO.C,D2*%
X149425002Y-73500000D03*
X147375002Y-73500000D03*
%TD*%
D15*
%TO.C,U3*%
X156660000Y-119390000D03*
X156660000Y-118890000D03*
D16*
X156660000Y-118390000D03*
D15*
X156660000Y-117890000D03*
X156660000Y-117390000D03*
X155890000Y-117390000D03*
X155890000Y-117890000D03*
D16*
X155890000Y-118390000D03*
D15*
X155890000Y-118890000D03*
X155890000Y-119390000D03*
%TD*%
D13*
%TO.C,C31*%
X102243393Y-116371896D03*
X104143393Y-116371896D03*
%TD*%
D20*
%TO.C,C23*%
X84152713Y-85345457D03*
X85112713Y-85345457D03*
%TD*%
D12*
%TO.C,R7*%
X80340817Y-128318479D03*
X80340817Y-129338479D03*
%TD*%
D21*
%TO.C,Module1*%
X155755000Y-112919000D03*
X152675000Y-112919000D03*
X155755000Y-112519000D03*
X152675000Y-112519000D03*
X155755000Y-112119000D03*
X152675000Y-112119000D03*
X155755000Y-111719000D03*
X152675000Y-111719000D03*
X155755000Y-111319000D03*
X152675000Y-111319000D03*
X155755000Y-110919000D03*
X152675000Y-110919000D03*
X155755000Y-110519000D03*
X152675000Y-110519000D03*
X155755000Y-110119000D03*
X152675000Y-110119000D03*
X155755000Y-109719000D03*
X152675000Y-109719000D03*
X155755000Y-109319000D03*
X152675000Y-109319000D03*
X155755000Y-108919000D03*
X152675000Y-108919000D03*
X155755000Y-108519000D03*
X152675000Y-108519000D03*
X155755000Y-108119000D03*
X152675000Y-108119000D03*
X155755000Y-107719000D03*
X152675000Y-107719000D03*
X155755000Y-107319000D03*
X152675000Y-107319000D03*
X155755000Y-106919000D03*
X152675000Y-106919000D03*
X155755000Y-106519000D03*
X152675000Y-106519000D03*
X155755000Y-106119000D03*
X152675000Y-106119000D03*
X155755000Y-105719000D03*
X152675000Y-105719000D03*
X155755000Y-105319000D03*
X152675000Y-105319000D03*
X155755000Y-104919000D03*
X152675000Y-104919000D03*
X155755000Y-104519000D03*
X152675000Y-104519000D03*
X155755000Y-104119000D03*
X152675000Y-104119000D03*
X155755000Y-103719000D03*
X152675000Y-103719000D03*
X155755000Y-103319000D03*
X152675000Y-103319000D03*
X155755000Y-102919000D03*
X152675000Y-102919000D03*
X155755000Y-102519000D03*
X152675000Y-102519000D03*
X155755000Y-102119000D03*
X152675000Y-102119000D03*
X155755000Y-101719000D03*
X152675000Y-101719000D03*
X155755000Y-101319000D03*
X152675000Y-101319000D03*
X155755000Y-100919000D03*
X152675000Y-100919000D03*
X155755000Y-100519000D03*
X152675000Y-100519000D03*
X155755000Y-100119000D03*
X152675000Y-100119000D03*
X155755000Y-99719000D03*
X152675000Y-99719000D03*
X155755000Y-99319000D03*
X152675000Y-99319000D03*
X155755000Y-98919000D03*
X152675000Y-98919000D03*
X155755000Y-98519000D03*
X152675000Y-98519000D03*
X155755000Y-98119000D03*
X152675000Y-98119000D03*
X155755000Y-97719000D03*
X152675000Y-97719000D03*
X155755000Y-97319000D03*
X152675000Y-97319000D03*
X155755000Y-96919000D03*
X152675000Y-96919000D03*
X155755000Y-96519000D03*
X152675000Y-96519000D03*
X155755000Y-96119000D03*
X152675000Y-96119000D03*
X155755000Y-95719000D03*
X152675000Y-95719000D03*
X155755000Y-95319000D03*
X152675000Y-95319000D03*
X155755000Y-94919000D03*
X152675000Y-94919000D03*
X155755000Y-94519000D03*
X152675000Y-94519000D03*
X155755000Y-94119000D03*
X152675000Y-94119000D03*
X155755000Y-93719000D03*
X152675000Y-93719000D03*
X155755000Y-93319000D03*
X152675000Y-93319000D03*
X121835000Y-112919000D03*
X118755000Y-112919000D03*
X121835000Y-112519000D03*
X118755000Y-112519000D03*
X121835000Y-112119000D03*
X118755000Y-112119000D03*
X121835000Y-111719000D03*
X118755000Y-111719000D03*
X121835000Y-111319000D03*
X118755000Y-111319000D03*
X121835000Y-110919000D03*
X118755000Y-110919000D03*
X121835000Y-110519000D03*
X118755000Y-110519000D03*
X121835000Y-110119000D03*
X118755000Y-110119000D03*
X121835000Y-109719000D03*
X118755000Y-109719000D03*
X121835000Y-109319000D03*
X118755000Y-109319000D03*
X121835000Y-108919000D03*
X118755000Y-108919000D03*
X121835000Y-108519000D03*
X118755000Y-108519000D03*
X121835000Y-108119000D03*
X118755000Y-108119000D03*
X121835000Y-107719000D03*
X118755000Y-107719000D03*
X121835000Y-107319000D03*
X118755000Y-107319000D03*
X121835000Y-106919000D03*
X118755000Y-106919000D03*
X121835000Y-106519000D03*
X118755000Y-106519000D03*
X121835000Y-106119000D03*
X118755000Y-106119000D03*
X121835000Y-105719000D03*
X118755000Y-105719000D03*
X121835000Y-105319000D03*
X118755000Y-105319000D03*
X121835000Y-104919000D03*
X118755000Y-104919000D03*
X121835000Y-104519000D03*
X118755000Y-104519000D03*
X121835000Y-104119000D03*
X118755000Y-104119000D03*
X121835000Y-103719000D03*
X118755000Y-103719000D03*
X121835000Y-103319000D03*
X118755000Y-103319000D03*
X121835000Y-102919000D03*
X118755000Y-102919000D03*
X121835000Y-102519000D03*
X118755000Y-102519000D03*
X121835000Y-102119000D03*
X118755000Y-102119000D03*
X121835000Y-101719000D03*
X118755000Y-101719000D03*
X121835000Y-101319000D03*
X118755000Y-101319000D03*
X121835000Y-100919000D03*
X118755000Y-100919000D03*
X121835000Y-100519000D03*
X118755000Y-100519000D03*
X121835000Y-100119000D03*
X118755000Y-100119000D03*
X121835000Y-99719000D03*
X118755000Y-99719000D03*
X121835000Y-99319000D03*
X118755000Y-99319000D03*
X121835000Y-98919000D03*
X118755000Y-98919000D03*
X121835000Y-98519000D03*
X118755000Y-98519000D03*
X121835000Y-98119000D03*
X118755000Y-98119000D03*
X121835000Y-97719000D03*
X118755000Y-97719000D03*
X121835000Y-97319000D03*
X118755000Y-97319000D03*
X121835000Y-96919000D03*
X118755000Y-96919000D03*
X121835000Y-96519000D03*
X118755000Y-96519000D03*
X121835000Y-96119000D03*
X118755000Y-96119000D03*
X121835000Y-95719000D03*
X118755000Y-95719000D03*
X121835000Y-95319000D03*
X118755000Y-95319000D03*
X121835000Y-94919000D03*
X118755000Y-94919000D03*
X121835000Y-94519000D03*
X118755000Y-94519000D03*
X121835000Y-94119000D03*
X118755000Y-94119000D03*
X121835000Y-93719000D03*
X118755000Y-93719000D03*
X121835000Y-93319000D03*
X118755000Y-93319000D03*
%TD*%
D20*
%TO.C,C18*%
X71918923Y-86359999D03*
X72878923Y-86359999D03*
%TD*%
D17*
%TO.C,C8*%
X77150000Y-111825951D03*
X75250000Y-111825951D03*
%TD*%
D20*
%TO.C,C24*%
X83358239Y-98942600D03*
X84318239Y-98942600D03*
%TD*%
D15*
%TO.C,U5*%
X167335000Y-87880000D03*
X167335000Y-87380000D03*
D16*
X167335000Y-86880000D03*
D15*
X167335000Y-86380000D03*
X167335000Y-85880000D03*
X166565000Y-85880000D03*
X166565000Y-86380000D03*
D16*
X166565000Y-86880000D03*
D15*
X166565000Y-87380000D03*
X166565000Y-87880000D03*
%TD*%
D22*
%TO.C,C27*%
X84300000Y-81280000D03*
X83340000Y-81280000D03*
%TD*%
D13*
%TO.C,C16*%
X77802345Y-92682654D03*
X79702345Y-92682654D03*
%TD*%
D23*
%TO.C,C35*%
X97935402Y-110187717D03*
X97935402Y-108287717D03*
%TD*%
D13*
%TO.C,C29*%
X102240000Y-114300000D03*
X104140000Y-114300000D03*
%TD*%
D24*
%TO.C,U9*%
X75350000Y-84500000D03*
X77050000Y-84500000D03*
X75350000Y-83140000D03*
X77050000Y-83140000D03*
D25*
X74295000Y-86382500D03*
X75565000Y-86382500D03*
X76835000Y-86382500D03*
X78105000Y-86382500D03*
X78105000Y-81257500D03*
X76835000Y-81257500D03*
X75565000Y-81257500D03*
X74295000Y-81257500D03*
%TD*%
D23*
%TO.C,C28*%
X83934503Y-72200847D03*
X83934503Y-70300847D03*
%TD*%
D17*
%TO.C,C7*%
X77150000Y-114365951D03*
X75250000Y-114365951D03*
%TD*%
D13*
%TO.C,C13*%
X77836186Y-88574153D03*
X79736186Y-88574153D03*
%TD*%
D26*
%TO.C,U1*%
X141986000Y-140096000D03*
X141986000Y-139446000D03*
X141986000Y-138796000D03*
X140086000Y-138796000D03*
X140086000Y-140096000D03*
%TD*%
D27*
%TO.C,Q1*%
X84797500Y-123895000D03*
X84797500Y-125025000D03*
X85507500Y-123895000D03*
X85507500Y-125025000D03*
D28*
X86277500Y-123485000D03*
X86277500Y-124135000D03*
X86277500Y-124785000D03*
X86277500Y-125435000D03*
X83277500Y-123485000D03*
X83277500Y-124135000D03*
X83277500Y-124785000D03*
X83277500Y-125435000D03*
%TD*%
D29*
%TO.C,L2*%
X74125000Y-73660000D03*
X78275000Y-73660000D03*
%TD*%
D13*
%TO.C,C12*%
X80330000Y-114365951D03*
X82230000Y-114365951D03*
%TD*%
D30*
%TO.C,C34*%
X82856306Y-76923143D03*
X82856306Y-78823143D03*
%TD*%
D13*
%TO.C,C15*%
X80330000Y-116905951D03*
X82230000Y-116905951D03*
%TD*%
D18*
%TO.C,R10*%
X80788239Y-98942600D03*
X81808239Y-98942600D03*
%TD*%
D20*
%TO.C,C21*%
X80800000Y-86360000D03*
X81760000Y-86360000D03*
%TD*%
D29*
%TO.C,L1*%
X86460354Y-111824293D03*
X90610354Y-111824293D03*
%TD*%
D17*
%TO.C,C4*%
X77150000Y-116905951D03*
X75250000Y-116905951D03*
%TD*%
D31*
%TO.C,C36*%
X88386184Y-71616318D03*
X88386184Y-77841318D03*
%TD*%
D32*
%TO.C,U6*%
X106086000Y-129942500D03*
X106736000Y-129942500D03*
X107386000Y-129942500D03*
X108036000Y-129942500D03*
X108036000Y-125717500D03*
X107386000Y-125717500D03*
X106736000Y-125717500D03*
X106086000Y-125717500D03*
%TD*%
D33*
%TO.C,U7*%
X159970000Y-89480000D03*
X160620000Y-89480000D03*
X161270000Y-89480000D03*
X161270000Y-87580000D03*
X159970000Y-87580000D03*
%TD*%
D34*
%TO.C,C1*%
X173470000Y-107230000D03*
X171395000Y-107230000D03*
%TD*%
D20*
%TO.C,C25*%
X84186853Y-89792281D03*
X85146853Y-89792281D03*
%TD*%
D35*
%TO.C,D3*%
X81384428Y-126864154D03*
X80434428Y-124864154D03*
X79484428Y-126864154D03*
%TD*%
D23*
%TO.C,C32*%
X81493770Y-72175423D03*
X81493770Y-70275423D03*
%TD*%
D24*
%TO.C,U8*%
X77890000Y-107360000D03*
X79590000Y-107360000D03*
X77890000Y-106000000D03*
X79590000Y-106000000D03*
D25*
X76835000Y-109242500D03*
X78105000Y-109242500D03*
X79375000Y-109242500D03*
X80645000Y-109242500D03*
X80645000Y-104117500D03*
X79375000Y-104117500D03*
X78105000Y-104117500D03*
X76835000Y-104117500D03*
%TD*%
D12*
%TO.C,R9*%
X72382859Y-83310000D03*
X72382859Y-84330000D03*
%TD*%
D10*
%TO.C,R14*%
X83471929Y-80154974D03*
X82451929Y-80154974D03*
%TD*%
D36*
%TO.C,C2*%
X103292956Y-134029443D03*
X103292956Y-136104443D03*
%TD*%
D22*
%TO.C,C26*%
X92465884Y-107384748D03*
X91505884Y-107384748D03*
%TD*%
D30*
%TO.C,C30*%
X80809634Y-76920665D03*
X80809634Y-78820665D03*
%TD*%
D17*
%TO.C,C9*%
X74683491Y-92689406D03*
X72783491Y-92689406D03*
%TD*%
D23*
%TO.C,C33*%
X95753681Y-110142733D03*
X95753681Y-108242733D03*
%TD*%
D12*
%TO.C,R13*%
X83816177Y-106723229D03*
X83816177Y-107743229D03*
%TD*%
D17*
%TO.C,C3*%
X74638910Y-88431896D03*
X72738910Y-88431896D03*
%TD*%
D37*
%TO.C,C22*%
X79393099Y-99960929D03*
X79393099Y-99000929D03*
%TD*%
D38*
%TO.C,J2*%
X104090000Y-80520000D03*
X104590000Y-80520000D03*
X105090000Y-80520000D03*
X105590000Y-80520000D03*
X106090000Y-80520000D03*
X106590000Y-80520000D03*
X107090000Y-80520000D03*
X107590000Y-80520000D03*
X108090000Y-80520000D03*
X108590000Y-80520000D03*
X109090000Y-80520000D03*
X109590000Y-80520000D03*
X110090000Y-80520000D03*
X110590000Y-80520000D03*
X111090000Y-80520000D03*
X111590000Y-80520000D03*
X112090000Y-80520000D03*
X112590000Y-80520000D03*
X113090000Y-80520000D03*
%TD*%
D30*
%TO.C,C20*%
X75857079Y-124624531D03*
X75857079Y-126524531D03*
%TD*%
D19*
%TO.C,D1*%
X156499999Y-73449999D03*
X154449999Y-73449999D03*
%TD*%
D20*
%TO.C,C5*%
X89377500Y-127000000D03*
X90337500Y-127000000D03*
%TD*%
D10*
%TO.C,R12*%
X92468767Y-105637603D03*
X91448767Y-105637603D03*
%TD*%
D39*
%TO.C,C37*%
X99632500Y-116840000D03*
X93407500Y-116840000D03*
%TD*%
D20*
%TO.C,C17*%
X74297414Y-109300767D03*
X75257414Y-109300767D03*
%TD*%
%TO.C,C19*%
X82260385Y-109769461D03*
X83220385Y-109769461D03*
%TD*%
D13*
%TO.C,C10*%
X80330000Y-111825951D03*
X82230000Y-111825951D03*
%TD*%
D18*
%TO.C,R15*%
X80719151Y-82726754D03*
X81739151Y-82726754D03*
%TD*%
M02*
